<svg width="546" height="619" viewBox="0 0 546 619" fill="none" xmlns="http://www.w3.org/2000/svg">
<path d="M271.736 9C267.528 9 263.317 10.0624 259.523 12.1865L12.7871 150.337C4.89172 154.758 0.000305176 163.1 0 172.149V447.442L0.000976562 447.486L0.0126953 448.163V448.204L0.0146484 448.245C0.309063 456.967 5.13837 464.929 12.7871 469.212L259.523 607.362C263.319 609.487 267.53 610.547 271.736 610.547H276.736V574.596L37 440.364V179.183L276.736 44.9521V9H271.736Z" fill="#002F49"/>
<path d="M274 8.71094C278.209 8.71094 282.419 9.77337 286.213 11.8975L532.949 150.048C540.845 154.469 545.736 162.811 545.736 171.86V447.153L545.735 447.197L545.724 447.874V447.915L545.722 447.956C545.427 456.678 540.598 464.64 532.949 468.923L286.213 607.073C282.417 609.198 278.206 610.258 274 610.258H269V574.307L508.736 440.075V178.894L269 44.6631V8.71094H274Z" fill="#B36F3A"/>
<path d="M310 30.5C310 47.3447 296.345 61 279.5 61C262.655 61 249 47.3447 249 30.5C249 13.6553 262.655 0 279.5 0C296.345 0 310 13.6553 310 30.5Z" fill="#B36F3A"/>
<path d="M310 588.5C310 605.345 296.345 619 279.5 619C262.655 619 249 605.345 249 588.5C249 571.655 262.655 558 279.5 558C296.345 558 310 571.655 310 588.5Z" fill="#B36F3A"/>
<path d="M299.402 445.668L272.908 500.135L249.039 444.802L276.166 380.839L299.402 445.668ZM405.667 191.283L423.001 191.58L314.314 415.013L290.202 347.742L356.914 190.445L405.667 191.283Z" fill="#B36F3A"/>
<path d="M140 191.662L157.334 191.364L206.087 190.527L299.489 445.584L272.908 499.593L140 191.662Z" fill="#002F49"/>
<path d="M140 191.662L157.334 191.364L206.087 190.527L299.489 445.584L272.908 499.593L140 191.662Z" fill="#002F49"/>
</svg>
