<svg width="2234" height="619" viewBox="0 0 2234 619" fill="none" xmlns="http://www.w3.org/2000/svg">
<path d="M271.736 9C267.528 9 263.317 10.0624 259.523 12.1865L12.7871 150.337C4.89172 154.758 0.000305176 163.1 0 172.149V447.442L0.000976562 447.486L0.0126953 448.163V448.204L0.0146484 448.245C0.309063 456.967 5.13837 464.929 12.7871 469.212L259.523 607.362C263.319 609.487 267.53 610.547 271.736 610.547H276.736V574.596L37 440.364V179.183L276.736 44.9521V9H271.736Z" fill="#EAF3F8"></path>
<path d="M274 8.71094C278.209 8.71094 282.419 9.77337 286.213 11.8975L532.949 150.048C540.845 154.469 545.736 162.811 545.736 171.86V447.153L545.735 447.197L545.724 447.874V447.915L545.722 447.956C545.427 456.678 540.598 464.64 532.949 468.923L286.213 607.073C282.417 609.198 278.206 610.258 274 610.258H269V574.307L508.736 440.075V178.894L269 44.6631V8.71094H274Z" fill="#B36F3A"></path>
<path d="M310 30.5C310 47.3447 296.345 61 279.5 61C262.655 61 249 47.3447 249 30.5C249 13.6553 262.655 0 279.5 0C296.345 0 310 13.6553 310 30.5Z" fill="#B36F3A"></path>
<path d="M310 588.5C310 605.345 296.345 619 279.5 619C262.655 619 249 605.345 249 588.5C249 571.655 262.655 558 279.5 558C296.345 558 310 571.655 310 588.5Z" fill="#B36F3A"></path>
<path d="M299.402 445.668L272.908 500.135L249.039 444.802L276.166 380.839L299.402 445.668ZM405.667 191.283L423.001 191.58L314.314 415.013L290.202 347.742L356.914 190.445L405.667 191.283Z" fill="#B36F3A"></path>
<path d="M140 191.662L157.334 191.364L206.087 190.527L299.489 445.584L272.908 499.593L140 191.662Z" fill="#EAF3F8"></path>
<path d="M140 191.662L157.334 191.364L206.087 190.527L299.489 445.584L272.908 499.593L140 191.662Z" fill="#EAF3F8"></path>
<path d="M2234 454.54H2180.6V382.24H1992.86V454.54H1939.46V307.27C1939.46 285.772 1943.16 265.985 1950.55 247.91C1957.95 229.835 1968.22 214.293 1981.36 201.285C1994.51 188.276 2010.05 178.143 2027.99 170.886C2045.92 163.629 2065.51 160 2086.73 160H2207.09C2210.79 160 2214.28 160.685 2217.57 162.054C2220.85 163.423 2223.73 165.34 2226.2 167.805C2228.66 170.27 2230.58 173.145 2231.95 176.432C2233.32 179.718 2234 183.21 2234 186.907V454.54ZM1992.86 328.837H2180.6V213.403H2086.73C2085.09 213.403 2081.6 213.677 2076.25 214.225C2071.05 214.636 2064.96 215.8 2057.97 217.717C2051.13 219.634 2043.87 222.578 2036.2 226.549C2028.53 230.52 2021.48 235.997 2015.05 242.981C2008.61 249.964 2003.27 258.728 1999.03 269.272C1994.92 279.678 1992.86 292.345 1992.86 307.27V328.837Z" fill="#EAF3F8"></path>
<path d="M1915.84 213.403H1798.15V454.54H1744.74V213.403H1626.84V160H1915.84V213.403Z" fill="#EAF3F8"></path>
<path d="M1608.15 367.862C1608.15 378.406 1606.78 387.923 1604.05 396.413C1601.44 404.766 1597.95 412.16 1593.57 418.596C1589.19 425.032 1584.05 430.509 1578.17 435.028C1572.28 439.546 1566.18 443.243 1559.88 446.119C1553.59 448.995 1547.15 451.117 1540.58 452.486C1534.14 453.856 1528.05 454.54 1522.3 454.54H1316.28V401.137H1522.3C1532.57 401.137 1540.51 398.124 1546.12 392.099C1551.87 386.074 1554.75 377.995 1554.75 367.862C1554.75 362.933 1554 358.414 1552.49 354.306C1550.98 350.198 1548.79 346.638 1545.92 343.626C1543.18 340.613 1539.76 338.285 1535.65 336.642C1531.68 334.999 1527.23 334.177 1522.3 334.177H1399.47C1390.84 334.177 1381.53 332.671 1371.54 329.659C1361.54 326.509 1352.23 321.511 1343.6 314.664C1335.11 307.818 1327.99 298.849 1322.24 287.757C1316.63 276.666 1313.82 263.11 1313.82 247.089C1313.82 231.068 1316.63 217.58 1322.24 206.625C1327.99 195.534 1335.11 186.565 1343.6 179.718C1352.23 172.735 1361.54 167.737 1371.54 164.724C1381.53 161.575 1390.84 160 1399.47 160H1581.25V213.403H1399.47C1389.34 213.403 1381.39 216.484 1375.64 222.646C1370.03 228.808 1367.22 236.956 1367.22 247.089C1367.22 257.359 1370.03 265.506 1375.64 271.531C1381.39 277.419 1389.34 280.363 1399.47 280.363H1522.3H1522.71C1528.46 280.5 1534.55 281.322 1540.99 282.828C1547.42 284.197 1553.79 286.388 1560.09 289.401C1566.53 292.413 1572.62 296.247 1578.37 300.903C1584.12 305.422 1589.19 310.899 1593.57 317.335C1598.09 323.77 1601.65 331.165 1604.25 339.518C1606.85 347.87 1608.15 357.319 1608.15 367.862Z" fill="#EAF3F8"></path>
<path d="M1250.15 334.177H1081.51V280.363H1250.15V334.177ZM1274.18 454.54H1081.51C1074.12 454.54 1066.04 453.239 1057.28 450.638C1048.51 448.036 1040.37 443.791 1032.83 437.903C1025.44 431.878 1019.21 424.141 1014.14 414.693C1009.21 405.108 1006.75 393.4 1006.75 379.57V186.907C1006.75 183.21 1007.43 179.718 1008.8 176.432C1010.17 173.145 1012.02 170.27 1014.35 167.805C1016.81 165.34 1019.69 163.423 1022.98 162.054C1026.26 160.685 1029.82 160 1033.66 160H1274.18V213.403H1060.15V379.57C1060.15 386.554 1062 391.894 1065.7 395.591C1069.4 399.288 1074.8 401.137 1081.92 401.137H1274.18V454.54Z" fill="#EAF3F8"></path>
<path d="M977.788 160L838.323 444.065C836.132 448.447 832.845 451.939 828.464 454.54C824.219 457.279 819.495 458.648 814.291 458.648C809.225 458.648 804.501 457.279 800.119 454.54C795.874 451.939 792.587 448.447 790.26 444.065L651 160H710.771L814.291 372.176L918.222 160H977.788Z" fill="#EAF3F8"></path>
</svg>